<?xml version="1.0" encoding="UTF-8" standalone="no"?>
<svg
   xmlns:dc="http://purl.org/dc/elements/1.1/"
   xmlns:cc="http://creativecommons.org/ns#"
   xmlns:rdf="http://www.w3.org/1999/02/22-rdf-syntax-ns#"
   xmlns:svg="http://www.w3.org/2000/svg"
   xmlns="http://www.w3.org/2000/svg"
   xmlns:sodipodi="http://sodipodi.sourceforge.net/DTD/sodipodi-0.dtd"
   xmlns:inkscape="http://www.inkscape.org/namespaces/inkscape"
   version="1.1"
   height="93.760009765625"
   width="286.5899963378906"
   id="svg927"
   sodipodi:docname="sitelogo.svg"
   inkscape:version="0.92.2 2405546, 2018-03-11">
  <metadata
     id="metadata931">
    <rdf:RDF>
      <cc:Work
         rdf:about="">
        <dc:format>image/svg+xml</dc:format>
        <dc:type
           rdf:resource="http://purl.org/dc/dcmitype/StillImage" />
      </cc:Work>
    </rdf:RDF>
  </metadata>
  <sodipodi:namedview
     pagecolor="#ffffff"
     bordercolor="#666666"
     borderopacity="1"
     objecttolerance="10"
     gridtolerance="10"
     guidetolerance="10"
     inkscape:pageopacity="0"
     inkscape:pageshadow="2"
     inkscape:window-width="1920"
     inkscape:window-height="1007"
     id="namedview929"
     showgrid="false"
     inkscape:zoom="3.5627977"
     inkscape:cx="135.97219"
     inkscape:cy="15.87702"
     inkscape:window-x="0"
     inkscape:window-y="0"
     inkscape:window-maximized="1"
     inkscape:current-layer="svg927" />
  <defs
     id="SvgjsDefs1376" />
  <g
     id="SvgjsG1377"
     rel="mainfill"
     name="main_text"
     transform="translate(78.857287,-181.83796)"
     style="fill:#000000">
    <path
       d="m 10.33,201.57 c 2.43,0 4.53,1.37 4.53,6.05 v 4.44 c 0,0.97 0.64,1.3 1.29,1.3 0.64,0 1.29,-0.33 1.29,-1.3 v -4.44 c 0,-6.94 -3.55,-8.63 -7.11,-8.63 -3.87,0 -7.83,2.09 -7.83,8.31 v 2.99 c 0.73,9.53 12.6,10.17 12.6,19.46 v 2.74 c 0,4.6 -2.83,6.06 -5.25,6.06 -2.42,0 -5.25,-1.46 -5.25,-6.06 v -4.6 c 0,-0.97 -0.64,-1.29 -1.29,-1.29 -0.65,0 -1.29,0.32 -1.29,1.29 v 4.6 c 0,6.7 4.28,8.64 7.83,8.64 3.55,0 7.83,-1.94 7.83,-8.64 v -2.58 c 0,-10.66 -11.62,-11.55 -12.59,-19.62 v -2.99 c 0,-4.6 2.74,-5.73 5.24,-5.73 z m 29.23,-0.89 c 0,-0.81 -0.4,-1.21 -1.05,-1.29 -1.05,0 -1.21,0.73 -1.37,1.37 l -5.33,29.79 c -0.65,3.39 -0.89,6.79 -0.89,7.75 -0.08,-0.96 -0.24,-4.68 -0.89,-7.75 l -6.45,-29.79 c -0.17,-0.64 -0.33,-1.37 -1.38,-1.37 -0.64,0 -1.13,0.4 -1.13,1.21 l 8.48,39.56 -0.48,2.91 c -1.05,6.3 -3.56,10.17 -6.38,10.17 -1.38,0 -1.78,0.65 -1.78,1.29 0,0.65 0.49,1.29 1.78,1.29 4.52,0 7.18,-5 8.96,-12.67 2.5,-11.06 7.91,-42.07 7.91,-42.07 z m 29.96,38.51 c 0,0.89 0.64,1.29 1.29,1.29 0.64,0 1.29,-0.4 1.29,-1.29 v -31.57 c 0,-6.7 -4.2,-8.63 -7.91,-8.63 -2.75,0 -4.61,1.37 -6.06,3.55 -1.29,-2.67 -3.87,-3.64 -6.05,-3.64 -2.43,0 -4.36,1.3 -5.49,3.23 v -1.37 c 0,-0.73 -0.33,-1.45 -1.3,-1.45 -0.8,0 -1.29,0.64 -1.29,1.45 v 38.43 c 0,0.89 0.65,1.29 1.29,1.29 0.65,0 1.3,-0.4 1.3,-1.29 v -29.47 c 0,-6.94 2.26,-8.31 5.16,-8.31 2.67,0 4.93,1.45 4.93,5.97 v 31.81 c 0,0.89 0.64,1.29 1.29,1.29 0.65,0 1.29,-0.4 1.29,-1.29 v -29.47 c 0,-5.24 1.21,-8.07 5.01,-8.07 2.9,0 5.25,1.45 5.25,5.97 z M 95.03,209.4 c 0,-8.24 -4.2,-10.5 -7.67,-10.5 -2.83,0 -5.01,1.13 -6.3,3.72 0.08,-0.24 0.08,-0.41 0.08,-0.57 v -0.56 c -0.16,-0.89 -0.64,-1.37 -1.37,-1.37 -0.65,0 -1.21,0.48 -1.21,1.37 v 53.04 c 0,0.89 0.64,1.29 1.29,1.29 0.65,0 1.29,-0.4 1.29,-1.29 v -16.31 c 1.37,2.1 3.64,3.15 6.22,3.15 3.47,0 7.67,-2.26 7.67,-9.69 z m -13.89,-0.16 c 0,-6.3 3.31,-7.83 5.65,-7.83 2.99,0 5.66,1.93 5.66,7.99 v 22.28 c 0,5.25 -2.67,7.19 -5.66,7.19 -3.31,0 -5.65,-1.86 -5.65,-7.19 z m 19.94,29.95 c 0,0.89 0.65,1.29 1.3,1.29 0.64,0 1.29,-0.4 1.29,-1.29 v -31.57 c 0.16,-4.19 2.42,-6.21 6.05,-6.21 2.99,0 5.25,1.93 5.25,6.38 v 31.48 c 0,0.89 0.65,1.3 1.29,1.3 0.65,0 1.29,-0.41 1.29,-1.3 v -31.48 c 0,-6.63 -3.79,-8.89 -7.26,-8.89 -2.59,0 -5.09,0.97 -6.62,3.4 v -18.25 c 0,-0.89 -0.65,-1.29 -1.29,-1.29 -0.65,0 -1.3,0.4 -1.3,1.29 z m 31.01,-40.29 c -3.72,0 -8.24,1.38 -8.24,9.21 0,4.52 0.16,9.44 0.16,12.35 0,2.91 -0.16,6.7 -0.16,11.22 0,7.75 4.69,9.45 8.24,9.45 3.55,0 8.23,-1.7 8.23,-9.45 0,-4.52 -0.16,-8.31 -0.16,-11.22 0,-2.91 0.16,-7.83 0.16,-12.35 0,-7.83 -4.52,-9.21 -8.23,-9.21 z m 0,2.59 c 2.42,0 5.65,0.89 5.65,6.62 0,4.6 -0.08,9.44 -0.08,12.35 0,2.91 0.08,6.62 0.08,11.22 0,5.66 -3.23,6.87 -5.65,6.87 -2.42,0 -5.65,-1.21 -5.65,-6.87 0,-4.6 0.08,-8.31 0.08,-11.22 0,-2.91 -0.08,-7.75 -0.08,-12.35 0,-5.73 3.23,-6.62 5.65,-6.62 z m 23.73,-2.59 c -2.5,0 -5.08,1.22 -6.37,3.15 0.08,-0.48 0.16,-0.89 0.16,-1.29 0,-0.73 -0.41,-1.45 -1.37,-1.45 -0.81,0 -1.3,0.72 -1.3,1.53 v 38.35 c 0,0.89 0.65,1.29 1.3,1.29 0.64,0 1.29,-0.4 1.29,-1.29 v -29.31 c 0,-6.94 2.98,-8.47 5.73,-8.47 2.99,0 5.73,1.93 5.73,6.38 v 31.4 c 0,0.89 0.65,1.29 1.29,1.29 0.65,0 1.3,-0.4 1.3,-1.29 v -31.4 c 0,-6.63 -4.28,-8.89 -7.76,-8.89 z m -6.29,4.85 c -0.08,-0.08 -0.08,-0.16 -0.08,-0.24 z m 19.62,34.64 c 0,1.21 1.05,2.26 2.26,2.26 1.21,0 2.26,-1.05 2.26,-2.26 0,-1.22 -1.05,-2.27 -2.26,-2.27 -1.21,0 -2.26,1.05 -2.26,2.27 z m 11.14,0.8 c 0,0.89 0.64,1.29 1.29,1.29 0.65,0 1.29,-0.4 1.29,-1.29 V 200.6 c 0,-0.89 -0.64,-1.29 -1.29,-1.29 -0.65,0 -1.29,0.4 -1.29,1.29 z m -0.97,-54.25 c 0,1.21 1.05,2.26 2.26,2.26 1.21,0 2.26,-1.05 2.26,-2.26 0,-1.21 -1.05,-2.26 -2.26,-2.26 -1.21,0 -2.26,1.05 -2.26,2.26 z m 19.05,13.96 c -3.71,0 -8.23,1.38 -8.23,9.21 0,4.52 0.16,9.44 0.16,12.35 0,2.91 -0.16,6.7 -0.16,11.22 0,7.75 4.68,9.45 8.23,9.45 3.56,0 8.24,-1.7 8.24,-9.45 0,-4.52 -0.16,-8.31 -0.16,-11.22 0,-2.91 0.16,-7.83 0.16,-12.35 0,-7.83 -4.52,-9.21 -8.24,-9.21 z m 0,2.59 c 2.43,0 5.66,0.89 5.66,6.62 0,4.6 -0.09,9.44 -0.09,12.35 0,2.91 0.09,6.62 0.09,11.22 0,5.66 -3.23,6.87 -5.66,6.87 -2.42,0 -5.65,-1.21 -5.65,-6.87 0,-4.6 0.08,-8.31 0.08,-11.22 0,-2.91 -0.08,-7.75 -0.08,-12.35 0,-5.73 3.23,-6.62 5.65,-6.62 z"
       style="fill:#000000"
       id="path918"
       inkscape:connector-curvature="0" />
  </g>
  <g
     id="SvgjsG1378"
     rel="mainfill"
     name="slogan_text"
     transform="translate(119.06499695777893,-146.239990234375)"
     fill="#000000">
    <path
       d="M2.88 234.71L2.88 231.51L8.18 231.51L8.18 234.71ZM10.28 240L10.28 237.88L9.24 236.83L10.28 235.77L10.28 230.46L9.24 229.38L0.76 229.38L0.76 240L2.88 240L2.88 236.83L6.05 236.83L7.11 237.88L8.18 238.95L8.18 240ZM20.81 240L20.81 237.88L13.93 237.88L13.93 235.77L20.28 235.77L20.28 233.64L13.93 233.64L13.93 231.51L20.81 231.51L20.81 229.38L11.80 229.38L11.80 240ZM24.15 234.71L24.15 233.64L26.26 231.51L29.44 231.51L29.44 234.71ZM24.15 240L24.15 236.83L29.44 236.83L29.44 240L31.55 240L31.55 229.38L25.20 229.38L22.03 232.58L22.03 240ZM41.55 240L42.60 238.95L42.60 236.83L40.49 236.83L40.49 237.88L35.19 237.88L35.19 231.51L40.49 231.51L40.49 232.57L42.60 232.57L42.60 230.46L41.55 229.38L34.12 229.38L33.07 230.46L33.07 238.95L34.12 240ZM46.08 240L46.08 235.77L51.38 235.77L51.38 240L53.49 240L53.49 229.38L51.38 229.38L51.38 233.64L46.08 233.64L46.08 229.38L43.96 229.38L43.96 240ZM66.46 240L66.46 231.51L70.14 231.51L70.14 229.38L60.62 229.38L60.62 231.51L64.33 231.51L64.33 240ZM73.33 240L73.33 235.77L78.62 235.77L78.62 240L80.73 240L80.73 229.38L78.62 229.38L78.62 233.64L73.33 233.64L73.33 229.38L71.20 229.38L71.20 240ZM91.26 240L91.26 237.88L84.37 237.88L84.37 235.77L90.73 235.77L90.73 233.64L84.37 233.64L84.37 231.51L91.26 231.51L91.26 229.38L82.25 229.38L82.25 240ZM100.66 234.71L100.66 233.64L102.77 231.51L105.96 231.51L105.96 234.71ZM100.66 240L100.66 236.83L105.96 236.83L105.96 240L108.07 240L108.07 229.38L101.71 229.38L98.54 232.58L98.54 240ZM111.71 234.71L111.71 231.51L117.00 231.51L117.00 234.71ZM119.11 240L119.11 237.88L118.06 236.83L119.11 235.77L119.11 230.46L118.06 229.38L109.58 229.38L109.58 240L111.71 240L111.71 236.83L114.88 236.83L115.94 237.88L117.00 238.95L117.00 240ZM126.01 240L126.01 231.51L129.70 231.51L129.70 229.38L120.17 229.38L120.17 231.51L123.89 231.51L123.89 240Z"
       fill="#000000"
       style="fill: rgb(0, 0, 0);"
       id="path921" />
  </g>
  <g
     id="SvgjsG1379"
     rel="mainfill"
     name="symbol"
     transform="translate(0,13.3800048828125) scale(0.67)"
     fill="#2F2933">
    <path
       d="M50,0C22.386,0,0,22.386,0,50s22.386,50,50,50s50-22.386,50-50S77.614,0,50,0z M50,14.156c19.799,0,35.844,16.044,35.844,35.844c0,19.799-16.045,35.844-35.844,35.844c-19.799,0-35.844-16.045-35.844-35.844C14.156,30.201,30.201,14.156,50,14.156z"
       fill="#2F2933"
       style="fill: rgb(47, 41, 51);"
       id="path924" />
  </g>
</svg>
